<svg width="931" height="931" viewBox="0 0 931 931" fill="none" xmlns="http://www.w3.org/2000/svg">
<g clip-path="url(#clip0_38_32)">
<path d="M928.588 39.5359H67.0754V867.788H928.588V39.5359Z" fill="#C4A67D" stroke="#58595B" stroke-width="0.787565" stroke-miterlimit="10"/>
<path d="M67.0754 834.659H928.588" stroke="#58595B" stroke-width="0.787565" stroke-miterlimit="10"/>
<path d="M67.0754 801.529H928.588" stroke="#58595B" stroke-width="0.787565" stroke-miterlimit="10"/>
<path d="M67.0754 768.398H928.588" stroke="#58595B" stroke-width="0.787565" stroke-miterlimit="10"/>
<path d="M67.0754 735.268H928.588" stroke="#58595B" stroke-width="0.787565" stroke-miterlimit="10"/>
<path d="M67.0754 702.138H928.588" stroke="#58595B" stroke-width="0.787565" stroke-miterlimit="10"/>
<path d="M67.0754 669.008H928.588" stroke="#58595B" stroke-width="0.787565" stroke-miterlimit="10"/>
<path d="M67.0754 635.878H928.588" stroke="#58595B" stroke-width="0.787565" stroke-miterlimit="10"/>
<path d="M67.0754 602.748H928.588" stroke="#58595B" stroke-width="0.787565" stroke-miterlimit="10"/>
<path d="M67.0754 569.617H928.588" stroke="#58595B" stroke-width="0.787565" stroke-miterlimit="10"/>
<path d="M67.0754 536.488H928.588" stroke="#58595B" stroke-width="0.787565" stroke-miterlimit="10"/>
<path d="M67.0754 503.358H928.588" stroke="#58595B" stroke-width="0.787565" stroke-miterlimit="10"/>
<path d="M67.0754 470.227H928.588" stroke="#58595B" stroke-width="0.787565" stroke-miterlimit="10"/>
<path d="M67.0754 437.097H928.588" stroke="#58595B" stroke-width="0.787565" stroke-miterlimit="10"/>
<path d="M67.0754 403.967H928.588" stroke="#58595B" stroke-width="0.787565" stroke-miterlimit="10"/>
<path d="M67.0754 370.837H928.588" stroke="#58595B" stroke-width="0.787565" stroke-miterlimit="10"/>
<path d="M67.0754 337.707H928.588" stroke="#58595B" stroke-width="0.787565" stroke-miterlimit="10"/>
<path d="M67.0754 304.577H928.588" stroke="#58595B" stroke-width="0.787565" stroke-miterlimit="10"/>
<path d="M67.0754 271.447H928.588" stroke="#58595B" stroke-width="0.787565" stroke-miterlimit="10"/>
<path d="M67.0754 238.317H928.588" stroke="#58595B" stroke-width="0.787565" stroke-miterlimit="10"/>
<path d="M67.0754 205.187H928.588" stroke="#58595B" stroke-width="0.787565" stroke-miterlimit="10"/>
<path d="M67.0754 172.056H928.588" stroke="#58595B" stroke-width="0.787565" stroke-miterlimit="10"/>
<path d="M67.0754 138.926H928.588" stroke="#58595B" stroke-width="0.787565" stroke-miterlimit="10"/>
<path d="M67.0754 105.797H928.588" stroke="#58595B" stroke-width="0.787565" stroke-miterlimit="10"/>
<path d="M67.0754 72.6665H928.588" stroke="#58595B" stroke-width="0.787565" stroke-miterlimit="10"/>
<path d="M895.454 39.5359V867.788" stroke="#58595B" stroke-width="0.787565" stroke-miterlimit="10"/>
<path d="M862.319 39.5359V867.788" stroke="#58595B" stroke-width="0.787565" stroke-miterlimit="10"/>
<path d="M829.183 39.5359V867.788" stroke="#58595B" stroke-width="0.787565" stroke-miterlimit="10"/>
<path d="M796.048 39.5359V867.788" stroke="#58595B" stroke-width="0.787565" stroke-miterlimit="10"/>
<path d="M762.914 39.5359V867.788" stroke="#58595B" stroke-width="0.787565" stroke-miterlimit="10"/>
<path d="M729.778 39.5359V867.788" stroke="#58595B" stroke-width="0.787565" stroke-miterlimit="10"/>
<path d="M696.644 39.5359V867.788" stroke="#58595B" stroke-width="0.787565" stroke-miterlimit="10"/>
<path d="M663.509 39.5359V867.788" stroke="#58595B" stroke-width="0.787565" stroke-miterlimit="10"/>
<path d="M630.374 39.5359V867.788" stroke="#58595B" stroke-width="0.787565" stroke-miterlimit="10"/>
<path d="M597.239 39.5359V867.788" stroke="#58595B" stroke-width="0.787565" stroke-miterlimit="10"/>
<path d="M564.104 39.5359V867.788" stroke="#58595B" stroke-width="0.787565" stroke-miterlimit="10"/>
<path d="M530.965 39.5359V867.788" stroke="#58595B" stroke-width="0.787565" stroke-miterlimit="10"/>
<path d="M497.829 39.5359V867.788" stroke="#58595B" stroke-width="0.787565" stroke-miterlimit="10"/>
<path d="M464.694 39.5359V867.788" stroke="#58595B" stroke-width="0.787565" stroke-miterlimit="10"/>
<path d="M431.56 39.5359V867.788" stroke="#58595B" stroke-width="0.787565" stroke-miterlimit="10"/>
<path d="M398.425 39.5359V867.788" stroke="#58595B" stroke-width="0.787565" stroke-miterlimit="10"/>
<path d="M365.29 39.5359V867.788" stroke="#58595B" stroke-width="0.787565" stroke-miterlimit="10"/>
<path d="M332.155 39.5359V867.788" stroke="#58595B" stroke-width="0.787565" stroke-miterlimit="10"/>
<path d="M299.02 39.5359V867.788" stroke="#58595B" stroke-width="0.787565" stroke-miterlimit="10"/>
<path d="M265.885 39.5359V867.788" stroke="#58595B" stroke-width="0.787565" stroke-miterlimit="10"/>
<path d="M232.75 39.5359V867.788" stroke="#58595B" stroke-width="0.787565" stroke-miterlimit="10"/>
<path d="M199.616 39.5359V867.788" stroke="#58595B" stroke-width="0.787565" stroke-miterlimit="10"/>
<path d="M166.481 39.5359V867.788" stroke="#58595B" stroke-width="0.787565" stroke-miterlimit="10"/>
<path d="M133.346 39.5359V867.788" stroke="#58595B" stroke-width="0.787565" stroke-miterlimit="10"/>
<path d="M100.21 39.5359V867.788" stroke="#58595B" stroke-width="0.787565" stroke-miterlimit="10"/>
<path d="M398.512 108.339V73.0812H398.536L398.468 68.2574C401.237 61.639 409.553 56.9117 423.301 54.1766C435.858 51.6778 450.459 51.3064 458.047 51.3064C461.313 51.3064 463.532 51.3739 464.169 51.3932C464.806 51.3739 467.02 51.3064 470.29 51.3064C477.878 51.3064 492.475 51.6778 505.036 54.1766C522.204 57.5919 530.911 64.1089 530.911 73.5443V108.276H596.212V302.995H333.863V108.276L398.516 108.339H398.512Z" fill="#DAD7C5" stroke="black" stroke-width="3.93782" stroke-miterlimit="10"/>
<path d="M330.153 372.863L230.681 372.704V339.352H67.4951V567.264H330.153V372.863Z" fill="#DAD7C5" stroke="black" stroke-width="3.93782" stroke-miterlimit="10"/>
<path d="M698.357 237.467H830.834V208.727H862.189V71.8845H664.913V205.563H698.357V237.467Z" fill="#DAD7C5" stroke="black" stroke-width="3.93782" stroke-miterlimit="10"/>
<path d="M66.1978 867.643H265.591V834.812H296.743V670.648L66.1978 669.008V867.643Z" fill="#DAD7C5" stroke="black" stroke-width="3.93782" stroke-miterlimit="10"/>
<path d="M365.444 857.653H397.127L396.737 876.278C402.602 889.959 463.624 891.859 463.624 891.859C463.624 891.859 513.69 892.998 532.074 876.278V857.653H561.803V636.828H365.444V857.653Z" fill="#DAD7C5" stroke="black" stroke-width="3.93782" stroke-miterlimit="10"/>
<path d="M100.539 270.564H263.439V68.3777H66.709V238.109H100.539V270.564Z" fill="#DAD7C5" stroke="black" stroke-width="3.93782" stroke-miterlimit="10"/>
<path d="M862.154 306.607H665.911V469.291H862.154V306.607Z" fill="#DAD7C5" stroke="black" stroke-width="3.93782" stroke-miterlimit="10"/>
<path d="M561.764 338.865H400.918V569.618H561.764V338.865Z" fill="#DAD7C5" stroke="black" stroke-width="3.93782" stroke-miterlimit="10"/>
<path d="M630.413 836.327H663.75V867.991H864.224V734.458H630.413V836.327Z" fill="#DAD7C5" stroke="black" stroke-width="3.93782" stroke-miterlimit="10"/>
<path d="M828.976 635.053H862.212V534.582H828.855V503.473L663.523 503.56V538.157H631.319V633.451H663.832V668.048L828.976 668.111V635.053Z" fill="#DAD7C5" stroke="black" stroke-width="3.93782" stroke-miterlimit="10"/>
<path d="M738.242 800.525V789.36L735.898 790.646C735.797 790.696 735.697 790.721 735.596 790.721C735.268 790.721 734.966 790.444 734.966 790.091C734.966 789.864 735.092 789.663 735.293 789.537L738.57 787.747C738.67 787.697 738.771 787.672 738.872 787.672C739.25 787.672 739.502 787.949 739.502 788.302V800.525C739.502 800.878 739.225 801.155 738.872 801.155C738.544 801.155 738.242 800.852 738.242 800.525ZM746.881 800.525V789.36L744.537 790.646C744.436 790.696 744.335 790.721 744.234 790.721C743.907 790.721 743.604 790.444 743.604 790.091C743.604 789.864 743.73 789.663 743.932 789.537L747.208 787.747C747.309 787.697 747.41 787.672 747.511 787.672C747.889 787.672 748.141 787.949 748.141 788.302V800.525C748.141 800.878 747.863 801.155 747.511 801.155C747.183 801.155 746.881 800.852 746.881 800.525ZM763.366 794.375C763.366 798.257 761.274 801.356 757.771 801.356C754.545 801.356 752.101 798.257 752.101 794.426C752.101 790.267 754.495 787.47 757.771 787.47C760.795 787.47 763.366 790.267 763.366 794.375ZM753.361 794.426C753.361 797.4 755.15 800.096 757.771 800.096C760.644 800.096 762.106 797.4 762.106 794.375C762.106 791.175 760.241 788.73 757.771 788.73C755.1 788.73 753.361 791.175 753.361 794.426Z" fill="#231F20"/>
<path d="M152.628 170.05V158.885L150.284 160.171C150.184 160.221 150.083 160.246 149.982 160.246C149.654 160.246 149.352 159.969 149.352 159.616C149.352 159.389 149.478 159.188 149.68 159.062L152.956 157.272C153.057 157.222 153.157 157.197 153.258 157.197C153.636 157.197 153.888 157.474 153.888 157.827V170.05C153.888 170.403 153.611 170.68 153.258 170.68C152.931 170.68 152.628 170.378 152.628 170.05ZM161.267 170.05V158.885L158.923 160.171C158.822 160.221 158.721 160.246 158.621 160.246C158.293 160.246 157.991 159.969 157.991 159.616C157.991 159.389 158.117 159.188 158.318 159.062L161.594 157.272C161.695 157.222 161.796 157.197 161.897 157.197C162.275 157.197 162.527 157.474 162.527 157.827V170.05C162.527 170.403 162.25 170.68 161.897 170.68C161.569 170.68 161.267 170.378 161.267 170.05ZM166.285 170.05C166.285 169.873 166.361 169.747 166.462 169.621L170.922 165.362C173.417 162.968 174.325 161.935 174.325 160.473C174.325 159.289 173.317 158.23 171.502 158.23C170.317 158.23 169.108 158.583 168.024 159.238C167.923 159.289 167.822 159.339 167.696 159.339C167.394 159.339 167.066 159.112 167.066 158.709C167.066 158.507 167.167 158.306 167.369 158.18C168.654 157.373 170.065 156.97 171.502 156.97C174.325 156.97 175.585 158.734 175.585 160.473C175.585 162.136 174.778 163.422 171.779 166.27L168.478 169.42H175.786C176.139 169.42 176.416 169.722 176.416 170.05C176.416 170.403 176.139 170.68 175.786 170.68H166.915C166.588 170.68 166.285 170.378 166.285 170.05Z" fill="#231F20"/>
<path d="M115.506 452.001C112.482 452.001 109.886 454.32 109.886 457.798C109.886 460.973 112.003 463.418 115.658 463.418C116.867 463.418 117.926 463.166 118.783 462.738C118.858 462.687 118.959 462.662 119.06 462.662C119.413 462.662 119.69 462.914 119.69 463.292C119.69 463.519 119.564 463.746 119.337 463.846C118.329 464.376 117.069 464.678 115.658 464.678C111.197 464.678 108.626 461.679 108.626 457.798C108.626 453.564 111.827 450.741 115.506 450.741C116.968 450.741 118.329 451.044 119.236 451.548C119.438 451.674 119.564 451.875 119.564 452.102C119.564 452.405 119.312 452.732 118.934 452.732C118.833 452.732 118.732 452.707 118.631 452.657C117.875 452.253 116.716 452.001 115.506 452.001ZM135.955 457.722C135.955 461.654 133.561 464.678 129.479 464.678C125.623 464.678 122.901 461.654 122.901 457.798C122.901 453.589 125.572 450.741 129.479 450.741C133.057 450.741 135.955 453.589 135.955 457.722ZM124.161 457.798C124.161 460.898 126.328 463.418 129.479 463.418C132.805 463.418 134.695 460.898 134.695 457.722C134.695 454.396 132.402 452.001 129.479 452.001C126.278 452.001 124.161 454.396 124.161 457.798ZM149.732 464.199C147.414 461.099 143.482 456.185 141.214 453.262V463.821C141.214 464.174 140.937 464.451 140.584 464.451C140.256 464.451 139.954 464.149 139.954 463.821V451.598C139.954 451.245 140.256 450.968 140.559 450.968C140.937 450.968 141.113 451.044 141.239 451.22C142.928 453.463 146.985 458.529 149.757 462.158V451.598C149.757 451.245 150.06 450.968 150.387 450.968C150.74 450.968 151.017 451.245 151.017 451.598V463.821C151.017 464.174 150.74 464.451 150.413 464.451C150.06 464.451 149.858 464.376 149.732 464.199ZM155.951 463.821V451.598C155.951 451.22 156.254 450.968 156.581 450.968H163.764C164.117 450.968 164.394 451.245 164.394 451.598C164.394 451.926 164.117 452.228 163.764 452.228H157.211V457.092H162.478C162.831 457.092 163.109 457.37 163.109 457.722C163.109 458.05 162.831 458.352 162.478 458.352H157.211V463.821C157.211 464.174 156.934 464.451 156.581 464.451C156.254 464.451 155.951 464.149 155.951 463.821ZM167.912 463.821V451.598C167.912 451.271 168.164 450.968 168.467 450.968H175.523C175.876 450.968 176.153 451.245 176.153 451.598C176.153 451.926 175.876 452.228 175.523 452.228H169.172V456.613H174.44C174.792 456.613 175.07 456.891 175.07 457.244C175.07 457.571 174.792 457.874 174.44 457.874H169.172V463.191H175.574C175.927 463.191 176.204 463.468 176.204 463.821C176.204 464.149 175.927 464.451 175.574 464.451H168.542C168.215 464.451 167.912 464.149 167.912 463.821ZM188.939 464.224L184.831 459.436H181.453V463.821C181.453 464.174 181.176 464.451 180.823 464.451C180.496 464.451 180.193 464.149 180.193 463.821V451.598C180.193 451.245 180.471 450.968 180.823 450.968H184.528C187.477 450.968 189.342 452.758 189.342 455.202C189.342 457.017 188.359 458.63 186.292 459.209L189.896 463.418C189.997 463.519 190.047 463.67 190.047 463.821C190.047 464.124 189.77 464.451 189.417 464.451C189.241 464.451 189.065 464.376 188.939 464.224ZM181.453 452.228V458.176H184.528C186.847 458.176 188.082 456.865 188.082 455.202C188.082 453.413 186.62 452.228 184.528 452.228H181.453ZM193.828 463.821V451.598C193.828 451.271 194.08 450.968 194.383 450.968H201.439C201.792 450.968 202.069 451.245 202.069 451.598C202.069 451.926 201.792 452.228 201.439 452.228H195.088V456.613H200.355C200.708 456.613 200.985 456.891 200.985 457.244C200.985 457.571 200.708 457.874 200.355 457.874H195.088V463.191H201.49C201.842 463.191 202.12 463.468 202.12 463.821C202.12 464.149 201.842 464.451 201.49 464.451H194.458C194.131 464.451 193.828 464.149 193.828 463.821ZM215.888 464.199C213.569 461.099 209.637 456.185 207.369 453.262V463.821C207.369 464.174 207.092 464.451 206.739 464.451C206.412 464.451 206.109 464.149 206.109 463.821V451.598C206.109 451.245 206.412 450.968 206.714 450.968C207.092 450.968 207.268 451.044 207.394 451.22C209.083 453.463 213.141 458.529 215.913 462.158V451.598C215.913 451.245 216.215 450.968 216.543 450.968C216.896 450.968 217.173 451.245 217.173 451.598V463.821C217.173 464.174 216.896 464.451 216.568 464.451C216.215 464.451 216.014 464.376 215.888 464.199ZM228.054 452.001C225.03 452.001 222.434 454.32 222.434 457.798C222.434 460.973 224.551 463.418 228.205 463.418C229.415 463.418 230.474 463.166 231.331 462.738C231.406 462.687 231.507 462.662 231.608 462.662C231.961 462.662 232.238 462.914 232.238 463.292C232.238 463.519 232.112 463.746 231.885 463.846C230.877 464.376 229.617 464.678 228.205 464.678C223.745 464.678 221.174 461.679 221.174 457.798C221.174 453.564 224.375 450.741 228.054 450.741C229.516 450.741 230.877 451.044 231.784 451.548C231.986 451.674 232.112 451.875 232.112 452.102C232.112 452.405 231.86 452.732 231.482 452.732C231.381 452.732 231.28 452.707 231.179 452.657C230.423 452.253 229.264 452.001 228.054 452.001ZM236.381 463.821V451.598C236.381 451.271 236.633 450.968 236.936 450.968H243.992C244.345 450.968 244.622 451.245 244.622 451.598C244.622 451.926 244.345 452.228 243.992 452.228H237.641V456.613H242.909C243.261 456.613 243.539 456.891 243.539 457.244C243.539 457.571 243.261 457.874 242.909 457.874H237.641V463.191H244.043C244.395 463.191 244.673 463.468 244.673 463.821C244.673 464.149 244.395 464.451 244.043 464.451H237.011C236.684 464.451 236.381 464.149 236.381 463.821Z" fill="#231F20"/>
<path d="M445.215 743.247C444.837 740.374 444.156 736.115 443.476 732.486C441.787 735.888 439.973 739.845 438.712 742.894C438.612 743.146 438.435 743.323 438.158 743.323C437.906 743.323 437.654 743.197 437.553 742.97C436.066 739.87 434.075 735.661 432.563 732.511C432.009 736.064 431.404 740.752 431.127 743.247C431.101 743.549 430.799 743.802 430.471 743.802C430.144 743.802 429.867 743.524 429.867 743.146L429.942 742.415C430.194 740.172 430.95 734.174 431.58 730.57C431.631 730.268 431.933 730.041 432.236 730.041C432.437 730.041 432.588 730.117 432.689 730.243C432.815 730.369 432.992 730.621 433.092 730.848C434.478 733.67 436.469 737.778 438.108 741.13C439.544 737.829 441.434 733.595 443.173 730.344C443.324 730.092 443.526 730.016 443.753 730.016C444.055 730.016 444.358 730.218 444.408 730.52C445.215 734.477 446.021 740.021 446.197 741.155C446.449 742.819 446.475 743.071 446.475 743.171C446.475 743.524 446.197 743.802 445.845 743.802C445.542 743.802 445.265 743.575 445.215 743.247ZM460.917 743.348C460.565 742.441 460.086 741.306 459.557 740.097H452.45C451.971 741.306 451.542 742.415 451.215 743.323C451.114 743.6 450.837 743.751 450.585 743.751C450.282 743.751 449.98 743.474 449.98 743.096C449.98 742.995 450.005 742.894 450.232 742.315C451.366 739.265 453.533 734.275 455.272 730.419C455.373 730.192 455.625 730.041 455.877 730.041H455.978C456.23 730.041 456.482 730.167 456.583 730.394C458.397 734.3 460.867 739.82 461.85 742.315C462.102 742.919 462.127 743.045 462.127 743.121C462.127 743.449 461.825 743.751 461.497 743.751C461.245 743.751 461.018 743.6 460.917 743.348ZM455.927 732.032C454.995 734.174 453.911 736.594 452.979 738.837H459.027C458.044 736.594 456.936 734.149 455.927 732.032ZM467.245 743.121C467.245 743.474 466.968 743.751 466.615 743.751C466.287 743.751 465.985 743.449 465.985 743.121V730.898C465.985 730.545 466.287 730.268 466.615 730.268C466.968 730.268 467.245 730.545 467.245 730.898V743.121ZM482.086 743.499C479.767 740.399 475.835 735.485 473.567 732.561V743.121C473.567 743.474 473.29 743.751 472.937 743.751C472.61 743.751 472.307 743.449 472.307 743.121V730.898C472.307 730.545 472.61 730.268 472.912 730.268C473.29 730.268 473.466 730.344 473.592 730.52C475.281 732.763 479.339 737.829 482.111 741.458V730.898C482.111 730.545 482.413 730.268 482.741 730.268C483.094 730.268 483.371 730.545 483.371 730.898V743.121C483.371 743.474 483.094 743.751 482.766 743.751C482.413 743.751 482.212 743.675 482.086 743.499Z" fill="#231F20"/>
<path d="M435.23 765.965C435.23 769.897 432.836 772.921 428.753 772.921C424.897 772.921 422.176 769.897 422.176 766.041C422.176 761.832 424.847 758.984 428.753 758.984C432.332 758.984 435.23 761.832 435.23 765.965ZM423.436 766.041C423.436 769.141 425.603 771.661 428.753 771.661C432.08 771.661 433.97 769.141 433.97 765.965C433.97 762.638 431.677 760.244 428.753 760.244C425.553 760.244 423.436 762.638 423.436 766.041ZM439.228 772.064V759.841C439.228 759.463 439.531 759.211 439.859 759.211H447.041C447.394 759.211 447.671 759.488 447.671 759.841C447.671 760.169 447.394 760.471 447.041 760.471H440.489V765.335H445.756C446.109 765.335 446.386 765.612 446.386 765.965C446.386 766.293 446.109 766.595 445.756 766.595H440.489V772.064C440.489 772.417 440.211 772.694 439.859 772.694C439.531 772.694 439.228 772.392 439.228 772.064ZM451.19 772.064V759.841C451.19 759.463 451.492 759.211 451.82 759.211H459.002C459.355 759.211 459.632 759.488 459.632 759.841C459.632 760.169 459.355 760.471 459.002 760.471H452.45V765.335H457.717C458.07 765.335 458.347 765.612 458.347 765.965C458.347 766.293 458.07 766.595 457.717 766.595H452.45V772.064C452.45 772.417 452.172 772.694 451.82 772.694C451.492 772.694 451.19 772.392 451.19 772.064ZM464.537 772.064C464.537 772.417 464.26 772.694 463.907 772.694C463.579 772.694 463.277 772.392 463.277 772.064V759.841C463.277 759.488 463.579 759.211 463.907 759.211C464.26 759.211 464.537 759.488 464.537 759.841V772.064ZM475.547 760.244C472.522 760.244 469.927 762.563 469.927 766.041C469.927 769.216 472.044 771.661 475.698 771.661C476.908 771.661 477.966 771.409 478.823 770.98C478.898 770.93 478.999 770.905 479.1 770.905C479.453 770.905 479.73 771.157 479.73 771.535C479.73 771.762 479.604 771.988 479.377 772.089C478.369 772.618 477.109 772.921 475.698 772.921C471.237 772.921 468.666 769.922 468.666 766.041C468.666 761.807 471.867 758.984 475.547 758.984C477.008 758.984 478.369 759.287 479.277 759.791C479.478 759.917 479.604 760.118 479.604 760.345C479.604 760.648 479.352 760.975 478.974 760.975C478.873 760.975 478.772 760.95 478.672 760.9C477.916 760.496 476.756 760.244 475.547 760.244ZM483.874 772.064V759.841C483.874 759.513 484.126 759.211 484.428 759.211H491.485C491.837 759.211 492.115 759.488 492.115 759.841C492.115 760.169 491.837 760.471 491.485 760.471H485.134V764.856H490.401C490.754 764.856 491.031 765.133 491.031 765.486C491.031 765.814 490.754 766.116 490.401 766.116H485.134V771.434H491.535C491.888 771.434 492.165 771.711 492.165 772.064C492.165 772.392 491.888 772.694 491.535 772.694H484.504C484.176 772.694 483.874 772.392 483.874 772.064Z" fill="#231F20"/>
<path d="M199.615 270.564H232.75" stroke="#DAD7C5" stroke-width="4.33161" stroke-miterlimit="10"/>
<path d="M333.863 205.133V238.268" stroke="#DAD7C5" stroke-width="4.33161" stroke-miterlimit="10"/>
<path d="M365.323 302.999H398.458" stroke="#DAD7C5" stroke-width="4.33161" stroke-miterlimit="10"/>
<path d="M530.974 302.999H564.109" stroke="#DAD7C5" stroke-width="4.33161" stroke-miterlimit="10"/>
<path d="M596.211 205.133V238.268" stroke="#DAD7C5" stroke-width="4.33161" stroke-miterlimit="10"/>
<path d="M667.344 205.563H695.906" stroke="#DAD7C5" stroke-width="4.33161" stroke-miterlimit="10"/>
<path d="M665.911 337.77V370.904" stroke="#DAD7C5" stroke-width="4.33161" stroke-miterlimit="10"/>
<path d="M631.319 569.56V602.695" stroke="#DAD7C5" stroke-width="4.33161" stroke-miterlimit="10"/>
<path d="M729.778 503.473H762.913" stroke="#DAD7C5" stroke-width="4.33161" stroke-miterlimit="10"/>
<path d="M632.916 734.458H663.509" stroke="#DAD7C5" stroke-width="4.33161" stroke-miterlimit="10"/>
<path d="M265.88 567.457H299.015" stroke="#DAD7C5" stroke-width="4.33161" stroke-miterlimit="10"/>
<path d="M330.211 437.097V470.232" stroke="#DAD7C5" stroke-width="4.33161" stroke-miterlimit="10"/>
<path d="M431.487 636.828H497.858" stroke="#DAD7C5" stroke-width="4.33161" stroke-miterlimit="10"/>
<path d="M464 569H499" stroke="#DAD7C5" stroke-width="5" stroke-miterlimit="10"/>
<path d="M561.804 702.138V735.273" stroke="#DAD7C5" stroke-width="4.33161" stroke-miterlimit="10"/>
<path d="M265.866 670.417L294.351 670.634" stroke="#DAD7C5" stroke-width="4.33161" stroke-miterlimit="10"/>
<path d="M793.584 469.291H826.719" stroke="#DAD7C5" stroke-width="4.33161" stroke-miterlimit="10"/>
<path d="M393.791 201.297C389.457 201.297 386.962 198.247 386.962 194.417C386.962 190.183 389.885 187.36 393.867 187.36C395.354 187.36 396.639 187.688 397.773 188.091C398.025 188.192 398.177 188.393 398.177 188.671C398.177 188.998 397.95 189.301 397.547 189.301C397.471 189.301 397.395 189.275 397.32 189.25C396.337 188.872 395.203 188.62 393.867 188.62C390.591 188.62 388.222 190.939 388.222 194.417C388.222 197.542 390.263 200.037 393.791 200.037C395.43 200.037 396.664 199.659 397.698 199.079V195.425H394.195C393.867 195.425 393.565 195.122 393.565 194.795C393.565 194.442 393.867 194.165 394.195 194.165H398.051C398.681 194.165 398.958 194.316 398.958 194.795V199.331C398.958 199.608 398.832 199.835 398.63 199.961C397.395 200.742 395.883 201.297 393.791 201.297ZM412.218 200.843L408.11 196.055H404.733V200.44C404.733 200.793 404.456 201.07 404.103 201.07C403.776 201.07 403.473 200.768 403.473 200.44V188.217C403.473 187.864 403.75 187.587 404.103 187.587H407.808C410.757 187.587 412.621 189.376 412.621 191.821C412.621 193.635 411.639 195.248 409.572 195.828L413.176 200.037C413.277 200.138 413.327 200.289 413.327 200.44C413.327 200.742 413.05 201.07 412.697 201.07C412.521 201.07 412.344 200.994 412.218 200.843ZM404.733 188.847V194.795H407.808C410.126 194.795 411.361 193.484 411.361 191.821C411.361 190.032 409.9 188.847 407.808 188.847H404.733ZM417.108 200.44V188.217C417.108 187.889 417.36 187.587 417.662 187.587H424.719C425.072 187.587 425.349 187.864 425.349 188.217C425.349 188.545 425.072 188.847 424.719 188.847H418.368V193.232H423.635C423.988 193.232 424.265 193.509 424.265 193.862C424.265 194.19 423.988 194.492 423.635 194.492H418.368V199.81H424.769C425.122 199.81 425.399 200.087 425.399 200.44C425.399 200.768 425.122 201.07 424.769 201.07H417.738C417.41 201.07 417.108 200.768 417.108 200.44ZM439.313 200.667C438.96 199.76 438.481 198.625 437.952 197.416H430.845C430.366 198.625 429.937 199.734 429.61 200.642C429.509 200.919 429.232 201.07 428.98 201.07C428.677 201.07 428.375 200.793 428.375 200.415C428.375 200.314 428.4 200.213 428.627 199.634C429.761 196.584 431.928 191.594 433.667 187.738C433.768 187.511 434.02 187.36 434.272 187.36H434.373C434.625 187.36 434.877 187.486 434.978 187.713C436.792 191.619 439.262 197.139 440.245 199.634C440.497 200.238 440.522 200.364 440.522 200.44C440.522 200.768 440.22 201.07 439.892 201.07C439.64 201.07 439.413 200.919 439.313 200.667ZM434.323 189.351C433.39 191.493 432.306 193.913 431.374 196.156H437.422C436.44 193.913 435.331 191.468 434.323 189.351ZM446.729 200.44V188.847H442.016C441.689 188.847 441.386 188.545 441.386 188.217C441.386 187.864 441.689 187.587 442.016 187.587H452.803C453.155 187.587 453.433 187.864 453.433 188.217C453.433 188.545 453.155 188.847 452.803 188.847H447.989V200.44C447.989 200.793 447.712 201.07 447.359 201.07C447.031 201.07 446.729 200.768 446.729 200.44ZM473.72 200.44V194.518H465.277V200.44C465.277 200.793 465 201.07 464.647 201.07C464.32 201.07 464.017 200.768 464.017 200.44V188.217C464.017 187.864 464.32 187.587 464.647 187.587C465 187.587 465.277 187.864 465.277 188.217V193.257H473.72V188.217C473.72 187.864 474.022 187.587 474.35 187.587C474.703 187.587 474.98 187.864 474.98 188.217V200.44C474.98 200.793 474.703 201.07 474.35 201.07C474.022 201.07 473.72 200.768 473.72 200.44ZM489.594 200.667C489.241 199.76 488.762 198.625 488.233 197.416H481.126C480.647 198.625 480.219 199.734 479.891 200.642C479.79 200.919 479.513 201.07 479.261 201.07C478.958 201.07 478.656 200.793 478.656 200.415C478.656 200.314 478.681 200.213 478.908 199.634C480.042 196.584 482.21 191.594 483.948 187.738C484.049 187.511 484.301 187.36 484.553 187.36H484.654C484.906 187.36 485.158 187.486 485.259 187.713C487.074 191.619 489.543 197.139 490.526 199.634C490.778 200.238 490.803 200.364 490.803 200.44C490.803 200.768 490.501 201.07 490.173 201.07C489.921 201.07 489.695 200.919 489.594 200.667ZM484.604 189.351C483.671 191.493 482.588 193.913 481.655 196.156H487.704C486.721 193.913 485.612 191.468 484.604 189.351ZM495.165 201.07C494.838 201.07 494.535 200.768 494.535 200.44V188.217C494.535 187.864 494.838 187.587 495.165 187.587C495.518 187.587 495.795 187.864 495.795 188.217V199.81H501.995C502.348 199.81 502.625 200.087 502.625 200.44C502.625 200.768 502.348 201.07 501.995 201.07H495.165ZM506.733 201.07C506.405 201.07 506.103 200.768 506.103 200.44V188.217C506.103 187.864 506.405 187.587 506.733 187.587C507.086 187.587 507.363 187.864 507.363 188.217V199.81H513.562C513.915 199.81 514.193 200.087 514.193 200.44C514.193 200.768 513.915 201.07 513.562 201.07H506.733Z" fill="#231F20"/>
<path d="M102.264 774.602C101.886 771.729 101.205 767.47 100.525 763.841C98.8364 767.243 97.0219 771.2 95.7618 774.25C95.6609 774.502 95.4845 774.678 95.2073 774.678C94.9553 774.678 94.7033 774.552 94.6025 774.325C93.1155 771.225 91.1246 767.017 89.6124 763.866C89.058 767.42 88.4532 772.107 88.1759 774.602C88.1507 774.905 87.8483 775.157 87.5207 775.157C87.193 775.157 86.9158 774.88 86.9158 774.502L86.9914 773.771C87.2435 771.528 87.9995 765.53 88.6296 761.926C88.68 761.623 88.9824 761.397 89.2848 761.397C89.4864 761.397 89.6376 761.472 89.7385 761.598C89.8645 761.724 90.0409 761.976 90.1417 762.203C91.5278 765.026 93.5188 769.134 95.1569 772.485C96.5934 769.184 98.4836 764.95 100.223 761.699C100.374 761.447 100.575 761.371 100.802 761.371C101.105 761.371 101.407 761.573 101.457 761.875C102.264 765.832 103.07 771.377 103.247 772.511C103.499 774.174 103.524 774.426 103.524 774.527C103.524 774.88 103.247 775.157 102.894 775.157C102.592 775.157 102.314 774.93 102.264 774.602ZM108.043 774.476V762.253C108.043 761.926 108.295 761.623 108.597 761.623H115.654C116.007 761.623 116.284 761.901 116.284 762.253C116.284 762.581 116.007 762.883 115.654 762.883H109.303V767.269H114.57C114.923 767.269 115.2 767.546 115.2 767.899C115.2 768.226 114.923 768.529 114.57 768.529H109.303V773.846H115.704C116.057 773.846 116.335 774.124 116.335 774.476C116.335 774.804 116.057 775.106 115.704 775.106H108.673C108.345 775.106 108.043 774.804 108.043 774.476ZM126.221 775.333C121.887 775.333 119.392 772.284 119.392 768.453C119.392 764.219 122.315 761.397 126.297 761.397C127.784 761.397 129.069 761.724 130.203 762.127C130.455 762.228 130.607 762.43 130.607 762.707C130.607 763.035 130.38 763.337 129.977 763.337C129.901 763.337 129.825 763.312 129.75 763.287C128.767 762.909 127.633 762.657 126.297 762.657C123.021 762.657 120.652 764.975 120.652 768.453C120.652 771.578 122.693 774.073 126.221 774.073C127.86 774.073 129.094 773.695 130.128 773.115V769.461H126.625C126.297 769.461 125.995 769.159 125.995 768.831C125.995 768.478 126.297 768.201 126.625 768.201H130.481C131.111 768.201 131.388 768.352 131.388 768.831V773.368C131.388 773.645 131.262 773.872 131.06 773.998C129.825 774.779 128.313 775.333 126.221 775.333ZM145.581 774.703C145.228 773.796 144.749 772.662 144.22 771.452H137.113C136.634 772.662 136.206 773.771 135.878 774.678C135.777 774.955 135.5 775.106 135.248 775.106C134.945 775.106 134.643 774.829 134.643 774.451C134.643 774.35 134.668 774.25 134.895 773.67C136.029 770.62 138.197 765.63 139.935 761.775C140.036 761.548 140.288 761.397 140.54 761.397H140.641C140.893 761.397 141.145 761.523 141.246 761.749C143.061 765.656 145.53 771.175 146.513 773.67C146.765 774.275 146.79 774.401 146.79 774.476C146.79 774.804 146.488 775.106 146.16 775.106C145.908 775.106 145.682 774.955 145.581 774.703ZM140.591 763.387C139.658 765.53 138.575 767.949 137.642 770.192H143.691C142.708 767.949 141.599 765.504 140.591 763.387ZM158.413 775.106C158.085 775.106 157.783 774.804 157.783 774.476V762.253C157.783 761.901 158.085 761.623 158.413 761.623C158.766 761.623 159.043 761.901 159.043 762.253V773.846H165.242C165.595 773.846 165.873 774.124 165.873 774.476C165.873 774.804 165.595 775.106 165.242 775.106H158.413ZM181.226 768.377C181.226 772.309 178.832 775.333 174.749 775.333C170.893 775.333 168.171 772.309 168.171 768.453C168.171 764.244 170.843 761.397 174.749 761.397C178.328 761.397 181.226 764.244 181.226 768.377ZM169.432 768.453C169.432 771.553 171.599 774.073 174.749 774.073C178.076 774.073 179.966 771.553 179.966 768.377C179.966 765.051 177.673 762.657 174.749 762.657C171.549 762.657 169.432 765.051 169.432 768.453ZM186.182 769.713C186.182 772.511 187.946 774.073 190.466 774.073C193.264 774.073 194.852 772.511 194.852 769.638V762.253C194.852 761.901 195.154 761.623 195.482 761.623C195.834 761.623 196.112 761.901 196.112 762.253V769.638C196.112 773.317 194.07 775.333 190.466 775.333C187.19 775.333 184.922 773.317 184.922 769.713V762.253C184.922 761.901 185.224 761.623 185.552 761.623C185.905 761.623 186.182 761.901 186.182 762.253V769.713ZM210.533 774.854C208.214 771.755 204.282 766.84 202.014 763.917V774.476C202.014 774.829 201.737 775.106 201.384 775.106C201.057 775.106 200.754 774.804 200.754 774.476V762.253C200.754 761.901 201.057 761.623 201.359 761.623C201.737 761.623 201.913 761.699 202.039 761.875C203.728 764.118 207.786 769.184 210.558 772.813V762.253C210.558 761.901 210.86 761.623 211.188 761.623C211.541 761.623 211.818 761.901 211.818 762.253V774.476C211.818 774.829 211.541 775.106 211.213 775.106C210.86 775.106 210.659 775.031 210.533 774.854ZM222.649 775.333C218.314 775.333 215.819 772.284 215.819 768.453C215.819 764.219 218.743 761.397 222.724 761.397C224.211 761.397 225.497 761.724 226.631 762.127C226.883 762.228 227.034 762.43 227.034 762.707C227.034 763.035 226.807 763.337 226.404 763.337C226.328 763.337 226.253 763.312 226.177 763.287C225.194 762.909 224.06 762.657 222.724 762.657C219.448 762.657 217.079 764.975 217.079 768.453C217.079 771.578 219.121 774.073 222.649 774.073C224.287 774.073 225.522 773.695 226.555 773.115V769.461H223.052C222.724 769.461 222.422 769.159 222.422 768.831C222.422 768.478 222.724 768.201 223.052 768.201H226.908C227.538 768.201 227.815 768.352 227.815 768.831V773.368C227.815 773.645 227.689 773.872 227.488 773.998C226.253 774.779 224.741 775.333 222.649 775.333ZM232.331 774.476V762.253C232.331 761.926 232.583 761.623 232.885 761.623H239.942C240.294 761.623 240.572 761.901 240.572 762.253C240.572 762.581 240.294 762.883 239.942 762.883H233.591V767.269H238.858C239.211 767.269 239.488 767.546 239.488 767.899C239.488 768.226 239.211 768.529 238.858 768.529H233.591V773.846H239.992C240.345 773.846 240.622 774.124 240.622 774.476C240.622 774.804 240.345 775.106 239.992 775.106H232.961C232.633 775.106 232.331 774.804 232.331 774.476Z" fill="#231F20"/>
<path d="M729.699 379.237C727.986 379.237 726.902 380.245 726.902 381.329C726.902 382.413 727.633 383.295 730.355 383.925C733.958 384.756 734.967 386.243 734.967 388.134C734.967 389.999 733.656 391.838 730.203 391.838C728.59 391.838 727.053 391.46 725.642 390.679C725.44 390.553 725.314 390.351 725.314 390.125C725.314 389.822 725.566 389.494 725.944 389.494C726.045 389.494 726.146 389.52 726.247 389.57C727.456 390.251 728.792 390.578 730.203 390.578C732.497 390.578 733.706 389.494 733.706 388.134C733.706 386.722 732.648 385.815 730.103 385.185C726.524 384.303 725.642 382.992 725.642 381.228C725.642 379.64 727.053 377.977 729.699 377.977C731.539 377.977 732.446 378.28 733.706 378.784C733.958 378.884 734.11 379.111 734.11 379.363C734.11 379.691 733.807 379.993 733.48 379.993C733.404 379.993 733.328 379.968 732.9 379.792C732.093 379.464 731.237 379.237 729.699 379.237ZM742.524 390.981V379.388H737.811C737.483 379.388 737.181 379.086 737.181 378.758C737.181 378.406 737.483 378.128 737.811 378.128H748.597C748.95 378.128 749.227 378.406 749.227 378.758C749.227 379.086 748.95 379.388 748.597 379.388H743.784V390.981C743.784 391.334 743.506 391.611 743.154 391.611C742.826 391.611 742.524 391.309 742.524 390.981ZM753.509 386.218C753.509 389.016 755.273 390.578 757.794 390.578C760.591 390.578 762.179 389.016 762.179 386.143V378.758C762.179 378.406 762.481 378.128 762.809 378.128C763.162 378.128 763.439 378.406 763.439 378.758V386.143C763.439 389.822 761.397 391.838 757.794 391.838C754.517 391.838 752.249 389.822 752.249 386.218V378.758C752.249 378.406 752.551 378.128 752.879 378.128C753.232 378.128 753.509 378.406 753.509 378.758V386.218ZM768.711 391.611C768.358 391.611 768.081 391.334 768.081 390.981V378.758C768.081 378.406 768.358 378.128 768.711 378.128H773.147C776.474 378.128 779.498 380.875 779.498 384.857C779.498 388.638 776.978 391.611 773.147 391.611H768.711ZM769.341 379.388V390.351H773.147C776.272 390.351 778.238 387.882 778.238 384.857C778.238 381.682 775.869 379.388 773.147 379.388H769.341ZM786.88 390.981V386.747C785.746 385.261 782.772 380.825 781.739 379.086C781.688 378.985 781.663 378.884 781.663 378.758C781.663 378.456 781.865 378.154 782.268 378.154C782.469 378.154 782.696 378.254 782.797 378.431C783.755 379.993 786.225 383.698 787.535 385.513C788.921 383.547 791.215 379.968 792.122 378.431C792.223 378.254 792.424 378.154 792.651 378.154C793.029 378.154 793.256 378.406 793.256 378.758C793.256 378.859 793.231 378.985 793.18 379.086C792.172 380.775 789.425 385.009 788.14 386.798V390.981C788.14 391.334 787.863 391.611 787.51 391.611C787.182 391.611 786.88 391.309 786.88 390.981Z" fill="#231F20"/>
<path d="M687.119 590.354C686.767 590.354 686.489 590.077 686.489 589.724V577.501C686.489 577.148 686.767 576.871 687.119 576.871H691.555C694.882 576.871 697.906 579.618 697.906 583.6C697.906 587.38 695.386 590.354 691.555 590.354H687.119ZM687.749 578.131V589.094H691.555C694.68 589.094 696.646 586.624 696.646 583.6C696.646 580.424 694.277 578.131 691.555 578.131H687.749ZM705.575 577.98C703.861 577.98 702.778 578.988 702.778 580.071C702.778 581.155 703.508 582.037 706.23 582.667C709.834 583.499 710.842 584.986 710.842 586.876C710.842 588.741 709.532 590.581 706.079 590.581C704.466 590.581 702.929 590.203 701.517 589.421C701.316 589.295 701.19 589.094 701.19 588.867C701.19 588.564 701.442 588.237 701.82 588.237C701.921 588.237 702.021 588.262 702.122 588.312C703.332 588.993 704.668 589.32 706.079 589.32C708.372 589.32 709.582 588.237 709.582 586.876C709.582 585.465 708.524 584.557 705.978 583.927C702.4 583.045 701.517 581.735 701.517 579.971C701.517 578.383 702.929 576.719 705.575 576.719C707.415 576.719 708.322 577.022 709.582 577.526C709.834 577.627 709.985 577.854 709.985 578.106C709.985 578.433 709.683 578.736 709.355 578.736C709.28 578.736 709.204 578.71 708.776 578.534C707.969 578.206 707.112 577.98 705.575 577.98ZM731.167 590.127L727.059 585.339H723.682V589.724C723.682 590.077 723.405 590.354 723.052 590.354C722.724 590.354 722.422 590.051 722.422 589.724V577.501C722.422 577.148 722.699 576.871 723.052 576.871H726.757C729.705 576.871 731.57 578.66 731.57 581.105C731.57 582.919 730.587 584.532 728.521 585.112L732.125 589.32C732.226 589.421 732.276 589.572 732.276 589.724C732.276 590.026 731.999 590.354 731.646 590.354C731.47 590.354 731.293 590.278 731.167 590.127ZM723.682 578.131V584.078H726.757C729.075 584.078 730.31 582.768 730.31 581.105C730.31 579.315 728.849 578.131 726.757 578.131H723.682ZM748.302 583.625C748.302 587.556 745.908 590.581 741.825 590.581C737.969 590.581 735.247 587.556 735.247 583.7C735.247 579.492 737.919 576.644 741.825 576.644C745.404 576.644 748.302 579.492 748.302 583.625ZM736.507 583.7C736.507 586.8 738.675 589.32 741.825 589.32C745.152 589.32 747.042 586.8 747.042 583.625C747.042 580.298 744.748 577.904 741.825 577.904C738.624 577.904 736.507 580.298 736.507 583.7ZM764.669 583.625C764.669 587.556 762.274 590.581 758.192 590.581C754.336 590.581 751.614 587.556 751.614 583.7C751.614 579.492 754.285 576.644 758.192 576.644C761.77 576.644 764.669 579.492 764.669 583.625ZM752.874 583.7C752.874 586.8 755.041 589.32 758.192 589.32C761.518 589.32 763.408 586.8 763.408 583.625C763.408 580.298 761.115 577.904 758.192 577.904C754.991 577.904 752.874 580.298 752.874 583.7ZM783.438 589.85C783.06 586.977 782.38 582.718 781.699 579.088C780.011 582.491 778.196 586.447 776.936 589.497C776.835 589.749 776.659 589.925 776.382 589.925C776.13 589.925 775.878 589.799 775.777 589.572C774.29 586.473 772.299 582.264 770.787 579.114C770.232 582.667 769.627 587.355 769.35 589.85C769.325 590.152 769.023 590.404 768.695 590.404C768.367 590.404 768.09 590.127 768.09 589.749L768.166 589.018C768.418 586.775 769.174 580.777 769.804 577.173C769.854 576.871 770.157 576.644 770.459 576.644C770.661 576.644 770.812 576.719 770.913 576.845C771.039 576.971 771.215 577.223 771.316 577.45C772.702 580.273 774.693 584.381 776.331 587.733C777.768 584.431 779.658 580.197 781.397 576.946C781.548 576.694 781.75 576.619 781.976 576.619C782.279 576.619 782.581 576.82 782.632 577.123C783.438 581.079 784.245 586.624 784.421 587.758C784.673 589.421 784.698 589.673 784.698 589.774C784.698 590.127 784.421 590.404 784.068 590.404C783.766 590.404 783.489 590.177 783.438 589.85Z" fill="#231F20"/>
<path d="M714.263 139.975C712.549 139.975 711.465 140.983 711.465 142.067C711.465 143.151 712.196 144.033 714.918 144.663C718.522 145.495 719.53 146.982 719.53 148.872C719.53 150.737 718.22 152.576 714.767 152.576C713.154 152.576 711.617 152.198 710.205 151.417C710.004 151.291 709.878 151.09 709.878 150.863C709.878 150.56 710.13 150.233 710.508 150.233C710.608 150.233 710.709 150.258 710.81 150.308C712.02 150.989 713.356 151.316 714.767 151.316C717.06 151.316 718.27 150.233 718.27 148.872C718.27 147.46 717.211 146.553 714.666 145.923C711.087 145.041 710.205 143.731 710.205 141.966C710.205 140.379 711.617 138.715 714.263 138.715C716.103 138.715 717.01 139.018 718.27 139.522C718.522 139.623 718.673 139.849 718.673 140.101C718.673 140.429 718.371 140.731 718.043 140.731C717.967 140.731 717.892 140.706 717.463 140.53C716.657 140.202 715.8 139.975 714.263 139.975ZM723.849 151.72V139.497C723.849 139.169 724.101 138.867 724.404 138.867H731.46C731.813 138.867 732.09 139.144 732.09 139.497C732.09 139.824 731.813 140.127 731.46 140.127H725.11V144.512H730.377C730.73 144.512 731.007 144.789 731.007 145.142C731.007 145.469 730.73 145.772 730.377 145.772H725.11V151.09H731.511C731.864 151.09 732.141 151.367 732.141 151.72C732.141 152.047 731.864 152.35 731.511 152.35H724.479C724.152 152.35 723.849 152.047 723.849 151.72ZM736.761 152.35C736.433 152.35 736.13 152.047 736.13 151.72V139.497C736.13 139.144 736.433 138.867 736.761 138.867C737.113 138.867 737.391 139.144 737.391 139.497V151.09H743.59C743.943 151.09 744.22 151.367 744.22 151.72C744.22 152.047 743.943 152.35 743.59 152.35H736.761ZM748.328 152.35C748 152.35 747.698 152.047 747.698 151.72V139.497C747.698 139.144 748 138.867 748.328 138.867C748.681 138.867 748.958 139.144 748.958 139.497V151.09H755.158C755.51 151.09 755.788 151.367 755.788 151.72C755.788 152.047 755.51 152.35 755.158 152.35H748.328ZM759.265 151.72V139.497C759.265 139.169 759.517 138.867 759.82 138.867H766.876C767.229 138.867 767.506 139.144 767.506 139.497C767.506 139.824 767.229 140.127 766.876 140.127H760.525V144.512H765.793C766.145 144.512 766.423 144.789 766.423 145.142C766.423 145.469 766.145 145.772 765.793 145.772H760.525V151.09H766.927C767.279 151.09 767.557 151.367 767.557 151.72C767.557 152.047 767.279 152.35 766.927 152.35H759.895C759.568 152.35 759.265 152.047 759.265 151.72ZM777.494 139.9C774.47 139.9 771.874 142.218 771.874 145.696C771.874 148.872 773.991 151.316 777.645 151.316C778.855 151.316 779.913 151.064 780.77 150.636C780.846 150.585 780.947 150.56 781.047 150.56C781.4 150.56 781.678 150.812 781.678 151.19C781.678 151.417 781.552 151.644 781.325 151.745C780.317 152.274 779.057 152.576 777.645 152.576C773.184 152.576 770.614 149.577 770.614 145.696C770.614 141.462 773.814 138.64 777.494 138.64C778.956 138.64 780.317 138.942 781.224 139.446C781.426 139.572 781.552 139.774 781.552 140.001C781.552 140.303 781.299 140.631 780.921 140.631C780.821 140.631 780.72 140.605 780.619 140.555C779.863 140.152 778.704 139.9 777.494 139.9ZM794.944 152.123C793.659 150.661 791.013 147.435 789.475 145.57C788.467 146.503 787.585 147.284 787.081 147.763V151.72C787.081 152.072 786.804 152.35 786.451 152.35C786.123 152.35 785.821 152.047 785.821 151.72V139.497C785.821 139.144 786.123 138.867 786.451 138.867C786.804 138.867 787.081 139.144 787.081 139.497V146.074C788.971 144.335 792.424 141.185 794.465 139.068C794.591 138.942 794.742 138.867 794.919 138.867C795.246 138.867 795.549 139.169 795.549 139.497C795.549 139.648 795.473 139.799 795.372 139.925C794.062 141.311 792.121 143.151 790.408 144.739C791.945 146.578 794.616 149.855 795.902 151.316C796.003 151.417 796.053 151.568 796.053 151.72C796.053 152.022 795.776 152.35 795.423 152.35C795.246 152.35 795.07 152.274 794.944 152.123Z" fill="#231F20"/>
<path d="M2.41187 2.41187V928.588H928.588V2.41187H2.41187ZM864.291 867.991H665.988V836.935L630.277 836.993V866.824H597.157V833.703H561.928V857.191H532.493V875.724C514.288 892.366 464.719 891.232 464.719 891.232C464.719 891.232 404.3 889.341 398.492 875.724L398.878 857.191H365.357V833.703H332.193V866.824H296.767V834.094H265.755V866.824H67.2683V668.101H100.389V634.981H67.2683V601.86H100.389L100.432 566.453H67.0705V339.217H100.432V303.776H67.3117V270.897H100.432L100.533 238.201H66.7039V68.4695H263.434L263.902 104.812H299.213V71.6918H365.41V38.5713H398.531V66.8679C401.29 60.2496 409.577 55.5223 423.277 52.7872C435.79 50.2884 450.339 49.917 457.898 49.917C461.154 49.917 463.363 49.9845 463.995 50.0038C464.632 49.9845 466.836 49.917 470.092 49.917C477.651 49.917 492.2 50.2884 504.713 52.7872C521.823 56.2024 531.008 62.2564 531.008 71.6918L530.906 38.8077H564.07V71.9281H597.191H630.311V105.049H664.97V71.9281H862.246V206.624H830.891V237.53H862.246V270.651H829.169L829.125 306.405H862.246V469.378H829.125L828.961 503.464V534.577H862.198V635.043H829.077V668.101H862.198V701.221H829.077V734.342H864.277V867.991H864.291Z" fill="#702023" stroke="black" stroke-width="3.93782" stroke-miterlimit="10"/>
<path d="M435.599 445.873C434.394 444.502 431.913 441.478 430.472 439.73C429.527 440.604 428.7 441.336 428.227 441.785V445.495C428.227 445.825 427.967 446.085 427.637 446.085C427.33 446.085 427.046 445.802 427.046 445.495V434.036C427.046 433.705 427.33 433.445 427.637 433.445C427.967 433.445 428.227 433.705 428.227 434.036V440.202C429.999 438.572 433.236 435.619 435.15 433.634C435.268 433.516 435.41 433.445 435.575 433.445C435.882 433.445 436.166 433.728 436.166 434.036C436.166 434.177 436.095 434.319 436.001 434.437C434.772 435.737 432.953 437.461 431.346 438.95C432.787 440.675 435.292 443.746 436.497 445.117C436.591 445.211 436.639 445.353 436.639 445.495C436.639 445.778 436.379 446.085 436.048 446.085C435.882 446.085 435.717 446.014 435.599 445.873ZM449.986 445.707C449.655 444.857 449.206 443.794 448.71 442.659H442.047C441.598 443.794 441.197 444.833 440.889 445.684C440.795 445.944 440.535 446.085 440.299 446.085C440.015 446.085 439.732 445.825 439.732 445.471C439.732 445.377 439.755 445.282 439.968 444.739C441.031 441.88 443.063 437.202 444.693 433.587C444.788 433.374 445.024 433.232 445.26 433.232H445.355C445.591 433.232 445.827 433.35 445.922 433.563C447.623 437.225 449.938 442.4 450.86 444.739C451.096 445.306 451.12 445.424 451.12 445.495C451.12 445.802 450.836 446.085 450.529 446.085C450.293 446.085 450.08 445.944 449.986 445.707ZM445.308 435.099C444.433 437.107 443.417 439.375 442.543 441.478H448.214C447.292 439.375 446.253 437.083 445.308 435.099ZM455.516 441.029C455.516 443.652 457.17 445.117 459.533 445.117C462.155 445.117 463.644 443.652 463.644 440.958V434.036C463.644 433.705 463.927 433.445 464.235 433.445C464.565 433.445 464.825 433.705 464.825 434.036V440.958C464.825 444.408 462.912 446.298 459.533 446.298C456.461 446.298 454.335 444.408 454.335 441.029V434.036C454.335 433.705 454.618 433.445 454.926 433.445C455.256 433.445 455.516 433.705 455.516 434.036V441.029ZM469.178 445.495V434.036C469.178 433.681 469.461 433.445 469.768 433.445H476.502C476.833 433.445 477.093 433.705 477.093 434.036C477.093 434.343 476.833 434.626 476.502 434.626H470.359V439.186H475.297C475.628 439.186 475.888 439.446 475.888 439.777C475.888 440.084 475.628 440.368 475.297 440.368H470.359V445.495C470.359 445.825 470.099 446.085 469.768 446.085C469.461 446.085 469.178 445.802 469.178 445.495ZM480.391 445.495V434.036C480.391 433.681 480.675 433.445 480.982 433.445H487.716C488.046 433.445 488.306 433.705 488.306 434.036C488.306 434.343 488.046 434.626 487.716 434.626H481.573V439.186H486.511C486.841 439.186 487.101 439.446 487.101 439.777C487.101 440.084 486.841 440.368 486.511 440.368H481.573V445.495C481.573 445.825 481.313 446.085 480.982 446.085C480.675 446.085 480.391 445.802 480.391 445.495ZM505.568 445.613C505.214 442.919 504.576 438.926 503.938 435.524C502.355 438.714 500.654 442.423 499.473 445.282C499.378 445.518 499.213 445.684 498.953 445.684C498.716 445.684 498.48 445.566 498.386 445.353C496.992 442.447 495.125 438.501 493.708 435.548C493.188 438.879 492.621 443.274 492.361 445.613C492.337 445.896 492.054 446.133 491.747 446.133C491.439 446.133 491.18 445.873 491.18 445.518L491.25 444.833C491.487 442.73 492.195 437.107 492.786 433.728C492.833 433.445 493.117 433.232 493.4 433.232C493.589 433.232 493.731 433.303 493.826 433.421C493.944 433.539 494.109 433.776 494.204 433.988C495.503 436.635 497.37 440.486 498.906 443.628C500.252 440.533 502.024 436.564 503.655 433.516C503.796 433.28 503.985 433.209 504.198 433.209C504.481 433.209 504.765 433.398 504.812 433.681C505.568 437.391 506.324 442.589 506.49 443.652C506.726 445.211 506.75 445.447 506.75 445.542C506.75 445.873 506.49 446.133 506.159 446.133C505.875 446.133 505.616 445.92 505.568 445.613ZM520.29 445.707C519.959 444.857 519.51 443.794 519.014 442.659H512.351C511.902 443.794 511.501 444.833 511.193 445.684C511.099 445.944 510.839 446.085 510.603 446.085C510.319 446.085 510.036 445.825 510.036 445.471C510.036 445.377 510.059 445.282 510.272 444.739C511.335 441.88 513.367 437.202 514.997 433.587C515.092 433.374 515.328 433.232 515.564 433.232H515.659C515.895 433.232 516.131 433.35 516.226 433.563C517.927 437.225 520.242 442.4 521.164 444.739C521.4 445.306 521.424 445.424 521.424 445.495C521.424 445.802 521.14 446.085 520.833 446.085C520.597 446.085 520.384 445.944 520.29 445.707ZM515.612 435.099C514.737 437.107 513.721 439.375 512.847 441.478H518.518C517.596 439.375 516.557 437.083 515.612 435.099ZM534.09 445.849C531.916 442.943 528.23 438.336 526.104 435.595V445.495C526.104 445.825 525.844 446.085 525.513 446.085C525.206 446.085 524.922 445.802 524.922 445.495V434.036C524.922 433.705 525.206 433.445 525.49 433.445C525.844 433.445 526.009 433.516 526.127 433.681C527.71 435.784 531.514 440.533 534.113 443.935V434.036C534.113 433.705 534.397 433.445 534.704 433.445C535.035 433.445 535.295 433.705 535.295 434.036V445.495C535.295 445.825 535.035 446.085 534.728 446.085C534.397 446.085 534.208 446.014 534.09 445.849Z" fill="#231F20"/>
<path d="M463.467 464.543C460.443 464.543 457.847 466.862 457.847 470.34C457.847 473.515 459.964 475.96 463.619 475.96C464.828 475.96 465.887 475.708 466.744 475.279C466.819 475.229 466.92 475.204 467.021 475.204C467.374 475.204 467.651 475.456 467.651 475.834C467.651 476.061 467.525 476.288 467.298 476.388C466.29 476.918 465.03 477.22 463.619 477.22C459.158 477.22 456.587 474.221 456.587 470.34C456.587 466.106 459.788 463.283 463.467 463.283C464.929 463.283 466.29 463.586 467.197 464.09C467.399 464.216 467.525 464.417 467.525 464.644C467.525 464.947 467.273 465.274 466.895 465.274C466.794 465.274 466.693 465.249 466.592 465.199C465.836 464.795 464.677 464.543 463.467 464.543ZM472.424 476.993C472.097 476.993 471.794 476.691 471.794 476.363V464.14C471.794 463.787 472.097 463.51 472.424 463.51C472.777 463.51 473.054 463.787 473.054 464.14V475.733H479.254C479.607 475.733 479.884 476.01 479.884 476.363C479.884 476.691 479.607 476.993 479.254 476.993H472.424ZM483.95 471.6C483.95 474.397 485.714 475.96 488.234 475.96C491.032 475.96 492.62 474.397 492.62 471.524V464.14C492.62 463.787 492.922 463.51 493.25 463.51C493.603 463.51 493.88 463.787 493.88 464.14V471.524C493.88 475.204 491.838 477.22 488.234 477.22C484.958 477.22 482.69 475.204 482.69 471.6V464.14C482.69 463.787 482.992 463.51 483.32 463.51C483.673 463.51 483.95 463.787 483.95 464.14V471.6ZM498.522 476.363V464.14C498.522 463.812 498.774 463.51 499.077 463.51H506.133C506.486 463.51 506.763 463.787 506.763 464.14C506.763 464.468 506.486 464.77 506.133 464.77H499.782V469.155H505.05C505.402 469.155 505.68 469.433 505.68 469.785C505.68 470.113 505.402 470.415 505.05 470.415H499.782V475.733H506.184C506.537 475.733 506.814 476.01 506.814 476.363C506.814 476.691 506.537 476.993 506.184 476.993H499.152C498.825 476.993 498.522 476.691 498.522 476.363Z" fill="#231F20"/>
</g>
<defs>
<clipPath id="clip0_38_32">
<rect width="931" height="931" fill="white"/>
</clipPath>
</defs>
</svg>
